<svg id="Layer_1" data-name="Layer 1" xmlns="http://www.w3.org/2000/svg" viewBox="0 0 94.46 68.06"><defs><style>.cls-1{fill:#fff;}</style></defs><title>carpathians_simple white</title><path class="cls-1" d="M9,63.66A181.26,181.26,0,0,1,19.16,43.85c2.54-4.06,6.09-7.11,8.63-11.17,5.59-9.15,10.16-17.27,15.48-26" transform="translate(-6.97 -5.17)"/><path class="cls-1" d="M10.3,64.41c2.44-5.29,4.9-10.58,7.74-15.68C20.67,44,24,40.26,27.27,36c6.67-8.77,11.6-19.18,17.3-28.61,1-1.66-1.6-3.17-2.6-1.52-5.86,9.71-10.88,20.72-18,29.54C17,43.9,12.29,53,7.7,62.9c-.8,1.74,1.79,3.27,2.6,1.51Z" transform="translate(-6.97 -5.17)"/><path class="cls-1" d="M67.38,32.68a10.08,10.08,0,0,1,3.07,2c5.59,7.62,8.64,15.74,12.7,23.87a21.33,21.33,0,0,0,7.43,7.47" transform="translate(-6.97 -5.17)"/><path class="cls-1" d="M66.62,34c6.34,3.2,9.67,13.61,12.51,19.67,2.73,5.82,5.34,10.05,10.69,13.7,1.6,1.09,3.1-1.51,1.52-2.59-6.87-4.69-9.14-11.9-12.68-19.06-2.54-5.15-5.16-11.6-10.52-14.31-1.72-.87-3.24,1.72-1.52,2.59Z" transform="translate(-6.97 -5.17)"/><path class="cls-1" d="M43.39,6.86c4.12,4.28,7.06,9.52,9.72,14.79,2.53,5,4.74,10.29,8.59,14.44" transform="translate(-6.97 -5.17)"/><path class="cls-1" d="M42.33,7.92c8,8.65,10.69,20.44,18.31,29.23,1.27,1.46,3.38-.67,2.12-2.12C55.16,26.27,52.41,14.46,44.45,5.8c-1.31-1.43-3.43.7-2.12,2.12Z" transform="translate(-6.97 -5.17)"/><path class="cls-1" d="M67.33,32.74a18.69,18.69,0,0,0-2.46,1.89,9.17,9.17,0,0,1-2.66,2" transform="translate(-6.97 -5.17)"/><path class="cls-1" d="M66.58,31.44a22.67,22.67,0,0,0-2.64,2,9.76,9.76,0,0,1-2.49,1.89,1.51,1.51,0,0,0-.54,2,1.54,1.54,0,0,0,2.05.54c2-.86,3.35-2.73,5.13-3.9,1.61-1.05.11-3.65-1.51-2.59Z" transform="translate(-6.97 -5.17)"/><path class="cls-1" d="M59,30.14q5.52-6.48,11.29-12.74" transform="translate(-6.97 -5.17)"/><path class="cls-1" d="M60,31.2q5.52-6.46,11.29-12.74c1.31-1.42-.81-3.54-2.12-2.12q-5.76,6.27-11.29,12.74c-1.25,1.46.86,3.6,2.12,2.12Z" transform="translate(-6.97 -5.17)"/><path class="cls-1" d="M70.85,17.14A33.51,33.51,0,0,0,73.5,20c5.08,8.13,6.6,16.76,13.2,23.36C92.29,48.42,97.37,54,100,60.57" transform="translate(-6.97 -5.17)"/><path class="cls-1" d="M69.79,18.2c5.63,6.7,7.57,15.13,12.55,22.23C87.56,47.87,95,52.67,98.7,61.33c.77,1.77,3.36.24,2.6-1.51A42.74,42.74,0,0,0,94.43,49c-3.36-3.92-7.55-7-10.36-11.42-4.57-7.1-6.67-15-12.15-21.55-1.25-1.48-3.36.66-2.13,2.13Z" transform="translate(-6.97 -5.17)"/><path class="cls-1" d="M46.06,11.72c-.84,5.16,3,9.89,3.74,15.06.32,2.16.08,4.37.37,6.53a13.68,13.68,0,0,0,1.91-5.79c.06-.59.16-1.31.71-1.53a1.17,1.17,0,0,1,.84,0,3.72,3.72,0,0,1,2.17,3.14,15.37,15.37,0,0,1-.32,4A16.65,16.65,0,0,0,56,40.69a10,10,0,0,0,4.69,5.77c1.31.67,3.24.82,4-.46l2.46,5.3a10.92,10.92,0,0,0,2.76,4.15A1.26,1.26,0,0,0,72,55.23a6.48,6.48,0,0,0,1.14-3,1.82,1.82,0,0,1,.39-1.18c.58-.51,1.45,0,2,.56L84.44,60" transform="translate(-6.97 -5.17)"/><path class="cls-1" d="M44.56,11.72c-.27,3.44.71,6.24,1.91,9.41C48,25.21,48.31,29,48.67,33.31c.11,1.38,2,2.18,2.79.76s1.06-3.31,1.84-4.63c.13-2.4.48-2,1,1.06-.11.89-.23,1.77-.35,2.66-.32,3.26-.26,6.52,1.22,9.52,1.8,3.66,6.71,8,10.51,4.38l-2.36-.31c1.08,2.33,3.87,11.88,8.33,10.58,1.69-.49,2.42-4.56,2.92-4.66S78,56,78.31,56.3l5.07,4.78c1.41,1.33,3.53-.79,2.12-2.12-2.53-2.39-5-4.81-7.61-7.18-1.23-1.14-2.63-2.84-4.54-2.16-1.22.43-.84,1.16-1.59,1.93-2.22,2.27-1.9,1.08-3.09-.44s-1.9-4.08-2.73-5.87a1.51,1.51,0,0,0-2.35-.3c-3.88,3.67-6.77-6.81-6.81-8.73a40,40,0,0,1,.4-4.38c.19-2.22.27-4.62-1.56-6.26-4.88-4.39-5.48,4.59-6.75,7l2.8.75c-.28-3.43-.13-6.68-1.18-10C49.24,19.4,47.23,16,47.56,11.72c.15-1.92-2.85-1.91-3,0Z" transform="translate(-6.97 -5.17)"/><path class="cls-1" d="M48.84,16.08c0,2.14,1.09,4.11,1.54,6.2.32,1.51.3,3.16,1.12,4.48a3.7,3.7,0,0,0,.07-3.15" transform="translate(-6.97 -5.17)"/><path class="cls-1" d="M47.34,16.08c.09,2.1.88,3.9,1.42,5.9s.53,3.77,1.44,5.54c.65,1.26,2.3.73,2.74-.36A5.29,5.29,0,0,0,53,23.21c-.63-1.81-3.53-1-2.89.8a3,3,0,0,1-.07,2.35L52.79,26c-.77-1.49-.71-3.22-1.14-4.81s-1.23-3.3-1.31-5.11-3.07-1.93-3,0Z" transform="translate(-6.97 -5.17)"/><path class="cls-1" d="M56.3,33.13a6.39,6.39,0,0,1,1.57,3.16c.05.65-.1,1.3-.07,2a7.4,7.4,0,0,0,.56,2.16A12.2,12.2,0,0,0,59.59,43a4.09,4.09,0,0,0,2.27,1.72,2.69,2.69,0,0,0,1.59-.07" transform="translate(-6.97 -5.17)"/><path class="cls-1" d="M55,33.88c1.26,1.69,1.19,2.61,1.33,4.56a12.11,12.11,0,0,0,1.27,4.08c1.23,2.6,3.32,4.2,6.25,3.62,1.89-.37,1.09-3.27-.8-2.89-3,.59-3.64-4.47-3.68-6.31a7.45,7.45,0,0,0-1.78-4.57c-1.14-1.53-3.74,0-2.59,1.51Z" transform="translate(-6.97 -5.17)"/><path class="cls-1" d="M60.21,35.07a2.82,2.82,0,0,0-.3,2c.1.69.33,1.35.44,2a5.92,5.92,0,0,0,.2,1.19,4.06,4.06,0,0,0,1.3,1.64,2.87,2.87,0,0,0,2.31,1" transform="translate(-6.97 -5.17)"/><path class="cls-1" d="M58.92,34.31c-1,1.88-.42,4.44.18,6.38a5.65,5.65,0,0,0,5.06,3.7c1.92-.1,1.93-3.1,0-3-1.25.06-2.13-1.23-2.31-2.29s-.81-2.37-.34-3.28c.88-1.71-1.71-3.23-2.59-1.51Z" transform="translate(-6.97 -5.17)"/><path class="cls-1" d="M61.61,36.76a21.35,21.35,0,0,0,3.77,8.58c.71,1,1.51,1.87,2.16,2.88a25.14,25.14,0,0,1,2.16,4.57" transform="translate(-6.97 -5.17)"/><path class="cls-1" d="M60.16,37.16c1.37,6.21,5.83,10.28,8.09,16,.7,1.78,3.6,1,2.89-.79-2.25-5.73-6.74-9.91-8.09-16-.41-1.88-3.3-1.09-2.89.8Z" transform="translate(-6.97 -5.17)"/><path class="cls-1" d="M71,51.92c-.06-.87-.89-1.44-1.49-2.08a10.47,10.47,0,0,1-2-4.3,36.55,36.55,0,0,0-4.09-8.86,2.45,2.45,0,0,0,.12,2,17,17,0,0,0,1.83,3.94,17,17,0,0,0,3.2,3.19l5.53,4.61" transform="translate(-6.97 -5.17)"/><path class="cls-1" d="M72.47,51.53a7.87,7.87,0,0,0-1.56-2.44,15.12,15.12,0,0,1-2.25-5,40.91,40.91,0,0,0-3.9-8.18,1.52,1.52,0,0,0-2.74.36c-.73,2.58,1.09,5.88,2.65,7.85,2.27,2.86,5.62,5.07,8.41,7.39,1.47,1.23,3.6-.88,2.12-2.12C73.13,47.67,71,46,69,44.2c-1.7-1.49-4.77-4.61-4.06-7.12l-2.74.36a40.73,40.73,0,0,1,4.08,9,16.1,16.1,0,0,0,1.17,3c.58,1,1.77,1.81,2.16,2.89.64,1.81,3.54,1,2.89-.79Z" transform="translate(-6.97 -5.17)"/><path class="cls-1" d="M70.26,35.25a5.21,5.21,0,0,0,.69,3,16.31,16.31,0,0,1,1.22,5.55c.93-.46.48-2,1.12-2.79.21-.1.4.16.49.37l5,11.44" transform="translate(-6.97 -5.17)"/><path class="cls-1" d="M68.76,35.25c0,2.94,1.68,5.58,1.91,8.57a1.52,1.52,0,0,0,2.56,1.06c1-1.05.78-1.79,1.35-3.09l-1.69.69c-1.1-.27.08.8.42,1.58l1.38,3.18,2.75,6.36c.77,1.76,3.35.24,2.59-1.52l-3.85-8.9c-.56-1.28-.93-3.22-2.49-3.6a1.53,1.53,0,0,0-1.7.69c-.29.68-.41,2-.88,2.49l2.56,1.06c-.22-2.9-1.94-5.77-1.91-8.57,0-1.93-3-1.93-3,0Z" transform="translate(-6.97 -5.17)"/><path class="cls-1" d="M68.84,34.51a26,26,0,0,0,.66,6.35c.41,1.5,1.09,3,1,4.51.56-.64,1.32-1.36,2.15-1.15a2.21,2.21,0,0,1,.78.46,8.76,8.76,0,0,1,3,5" transform="translate(-6.97 -5.17)"/><path class="cls-1" d="M67.34,34.51a36.05,36.05,0,0,0,.39,5.19c.32,1.92,1.21,3.71,1.27,5.67a1.51,1.51,0,0,0,2.56,1.06c.93-.94,2.11.63,2.47,1.23A8.45,8.45,0,0,1,75,50c.48,1.86,3.38,1.07,2.9-.8-1-3.84-4.57-8.82-8.42-4.92L72,45.37a18.06,18.06,0,0,0-.92-4.46,25.06,25.06,0,0,1-.74-6.4c0-1.92-3-1.93-3,0Z" transform="translate(-6.97 -5.17)"/><path class="cls-1" d="M52.84,27.2a7.73,7.73,0,0,1,3.36,4.61,46.07,46.07,0,0,1,1.07,5.74c.31,1.78.79,3.53,1.26,5.28l2.37,8.72,2-4.68" transform="translate(-6.97 -5.17)"/><path class="cls-1" d="M52.08,28.5c3.66,2.68,3.39,8.19,4.32,12.1s2,7.57,3.05,11.35c.31,1.14,2.21,1.59,2.74.36l2-4.68c.76-1.76-1.83-3.29-2.59-1.52l-2,4.68,2.74.36a163.58,163.58,0,0,1-4-16.17c-.62-3.82-1.61-6.75-4.78-9.07-1.56-1.14-3.06,1.46-1.52,2.59Z" transform="translate(-6.97 -5.17)"/><path class="cls-1" d="M42.92,8.7a32.68,32.68,0,0,1,6.63,14.12" transform="translate(-6.97 -5.17)"/><path class="cls-1" d="M41.86,9.76A32.52,32.52,0,0,1,48.1,23.22c.4,1.89,3.29,1.09,2.89-.79A35.68,35.68,0,0,0,44,7.64c-1.2-1.52-3.31.62-2.12,2.12Z" transform="translate(-6.97 -5.17)"/><path class="cls-1" d="M70.71,20.11A44.22,44.22,0,0,1,78.54,40.5l.79-5.39A37.07,37.07,0,0,1,87,50.23a3.88,3.88,0,0,0,1,2.23l.16-5.15c1.42,3.77,2.91,7.65,5.71,10.54a19.64,19.64,0,0,0-1.65-7c3.21,2.65,4.62,6.84,5.89,10.8l-3.6-5.08" transform="translate(-6.97 -5.17)"/><path class="cls-1" d="M69.42,20.87a46.26,46.26,0,0,1,7.68,20c.19,1.44,2.68,1.43,2.89,0l.78-5.39-2.5.67A36.8,36.8,0,0,1,84,45.93c.95,2.42,1.25,5.15,2.72,7.29a1.52,1.52,0,0,0,2.8-.76l.16-5.15-3,.4c1.55,4.07,3.2,7.9,6.1,11.2a1.51,1.51,0,0,0,2.56-1.06,27,27,0,0,0-1.7-7.35L91.22,52c3,2.8,4.27,6.35,5.5,10.14L99.46,61l-3.6-5.09c-1.11-1.56-3.71-.06-2.59,1.52l3.6,5.08c.92,1.3,3.31.57,2.74-1.16C98.22,57,96.69,53,93.34,49.84c-1-1-3.07,0-2.5,1.46a23.35,23.35,0,0,1,1.59,6.55L95,56.79c-2.57-2.92-4-6.27-5.33-9.87a1.5,1.5,0,0,0-2.94.39l-.16,5.15,2.79-.75c-1.79-2.61-2.25-6.56-3.64-9.47a42.13,42.13,0,0,0-5.32-8.19,1.51,1.51,0,0,0-2.51.67L77.1,40.1H80a48,48,0,0,0-8-20.75c-1.08-1.58-3.68-.08-2.59,1.52Z" transform="translate(-6.97 -5.17)"/><path class="cls-1" d="M92.74,55.64A5.43,5.43,0,0,0,94,57.18c.41.35.88.63,1.28,1a10.53,10.53,0,0,1,2.14,3.67c.16.35.52.76.85.56s.23-.37.25-.59l.12-1.61" transform="translate(-6.97 -5.17)"/><path class="cls-1" d="M91.45,56.4a10.85,10.85,0,0,0,2.62,2.7c1.12.94,1.4,2.29,2.07,3.5a2.19,2.19,0,0,0,2.55,1.26c1.51-.51,1.37-2.37,1.47-3.65.14-1.93-2.86-1.92-3,0A4.18,4.18,0,0,1,97,61.66l.89-.69-.25,0,1.16.15c-.34-.16-.61-1.33-.77-1.65a9,9,0,0,0-1.1-1.77c-.88-1.08-2.16-1.64-2.89-2.86a1.5,1.5,0,0,0-2.59,1.52Z" transform="translate(-6.97 -5.17)"/><path class="cls-1" d="M99.66,60.59a3.7,3.7,0,0,1-1.41,2.24" transform="translate(-6.97 -5.17)"/><path class="cls-1" d="M98.21,60.19a3.83,3.83,0,0,1-.16.58c.09-.22-.16.26-.19.31s-.11.17,0,.07l-.2.22a3.39,3.39,0,0,1-.45.4,1.5,1.5,0,0,0,0,2.12,1.54,1.54,0,0,0,2.12,0A5.08,5.08,0,0,0,101.1,61a1.5,1.5,0,1,0-2.89-.8Z" transform="translate(-6.97 -5.17)"/><path class="cls-1" d="M80.29,37.38c1.63.83,2.65,2.49,3.59,4.06l1.81,3.05a17.34,17.34,0,0,1,1.24,2.33c.75,1.84.87,3.9,1.8,5.65" transform="translate(-6.97 -5.17)"/><path class="cls-1" d="M79.53,38.67c2.41,1.51,4,4.87,5.31,7.33s1.54,4.87,2.6,7.23c.79,1.76,3.37.24,2.59-1.51-1.38-3.06-1.9-6.06-3.65-9-1.49-2.52-2.79-5-5.33-6.64-1.65-1-3.15,1.57-1.52,2.59Z" transform="translate(-6.97 -5.17)"/><path class="cls-1" d="M38.87,27.36l-1.77,4.2A8.41,8.41,0,0,0,36.19,35a4.19,4.19,0,0,1,0,1.54,2.42,2.42,0,0,1-.8,1c-1.61,1.33-3.65,2-5.28,3.34a9.37,9.37,0,0,0-3.42,8.25A14.91,14.91,0,0,1,27,52a8,8,0,0,1-.21,1.19,9.22,9.22,0,0,1-1.5,3.8c2.86-1.54,3.81-5.15,6-7.58a1.33,1.33,0,0,1,.57-.43.92.92,0,0,1,1,.7A2.58,2.58,0,0,1,32.74,51a9.74,9.74,0,0,1,.5-2.49q1.13-3.81,2-7.68a6.84,6.84,0,0,0,.23-3.2,14,14,0,0,1-1.86,6.14,26.67,26.67,0,0,1-1.53,2.28l-3.08,4.28a.79.79,0,0,1-.3.3c-.47.25-.9-.39-1-.91-.49-2.83,1.25-5.53,3-7.77a4.14,4.14,0,0,1,2.55-1.84c-.12,2.7-3.06,4.62-3.23,7.32" transform="translate(-6.97 -5.17)"/><path class="cls-1" d="M37.58,26.6c-1.12,2.65-1.76,5.69-2.86,8.24C33.37,38,30.25,38.44,28,40.76c-4.42,4.66-1.09,10.52-4.1,15.47-.75,1.23.8,2.92,2.06,2.05,2.19-1.52,5.1-4.43,5.24-7.26-.09,1.66,2.71,2.09,2.94.4.63-4.63,3.07-9,2.84-13.77a1.5,1.5,0,0,0-3,0,19,19,0,0,1-4.72,9.8c-1.62,1.92,1.22-2.57,1.09-2.34.79-1.39,1.77-3,3.35-3.53l-1.85-1.84c-.56,2.71-2.62,4.6-3.23,7.31-.42,1.88,2.47,2.68,2.9.8.6-2.71,2.66-4.59,3.23-7.32a1.52,1.52,0,0,0-1.85-1.84c-3.6,1.21-10.72,11.77-4.59,13.41a1.49,1.49,0,0,0,1.46-.39A24.88,24.88,0,0,0,37,37.65H34c.21,4.46-2.14,8.63-2.73,13l3,.39c.08-1.69-.42-3.84-2.66-3.52-3,.43-4.87,6.64-7.1,8.19l2.05,2.05c3.34-5.49-.3-12.37,5.59-16.41,1.74-1.19,4.35-1.92,5.33-4a7.85,7.85,0,0,0,.33-2.22,29.63,29.63,0,0,1,2.39-7c.74-1.76-1.84-3.29-2.59-1.51Z" transform="translate(-6.97 -5.17)"/><path class="cls-1" d="M26.37,49.33l-.51,2.38" transform="translate(-6.97 -5.17)"/><path class="cls-1" d="M24.93,48.93l-.51,2.38a1.5,1.5,0,1,0,2.89.79l.51-2.37a1.53,1.53,0,0,0-1.05-1.84,1.5,1.5,0,0,0-1.84,1Z" transform="translate(-6.97 -5.17)"/><path class="cls-1" d="M27.25,51.08V48.33" transform="translate(-6.97 -5.17)"/><path class="cls-1" d="M28.75,51.08V48.33a1.5,1.5,0,0,0-3,0v2.75a1.5,1.5,0,0,0,3,0Z" transform="translate(-6.97 -5.17)"/><path class="cls-1" d="M71.63,51.15" transform="translate(-6.97 -5.17)"/><path class="cls-1" d="M71.63,52.65a1.5,1.5,0,0,0,0-3,1.5,1.5,0,0,0,0,3Z" transform="translate(-6.97 -5.17)"/><path class="cls-1" d="M99.31,62.21a60.83,60.83,0,0,1-21.69,7.92A120.83,120.83,0,0,1,60.5,71.21l-9.16.14c-5.15.08-10.29.17-15.44.2a66.17,66.17,0,0,1-14.41-1,34.42,34.42,0,0,1-13.1-6" transform="translate(-6.97 -5.17)"/><path class="cls-1" d="M98.55,60.91c-14.28,8.32-29.31,8.66-45.38,8.91-14.91.24-31.18,2.54-44-6.59-1.58-1.12-3.08,1.48-1.52,2.59,13.34,9.48,30.05,7.25,45.54,7,16.64-.26,32.13-.72,46.89-9.32a1.5,1.5,0,0,0-1.51-2.59Z" transform="translate(-6.97 -5.17)"/></svg>