<svg id="Layer_1" data-name="Layer 1" xmlns="http://www.w3.org/2000/svg" viewBox="0 0 93.93 86.08"><defs><style>.cls-1{fill:gray;}.cls-2,.cls-3{fill:#b7b7b7;}.cls-3{font-size:13.75px;stroke:#b7b7b7;stroke-miterlimit:10;font-family:SegoeScript-Bold, Segoe Script;font-weight:700;}</style></defs><title>carpathians_eng</title><path class="cls-1" d="M9,63.66A181.26,181.26,0,0,1,19.16,43.85c2.54-4.06,6.09-7.11,8.63-11.17,5.59-9.15,10.16-17.27,15.48-26" transform="translate(-7.5 -5.17)"/><path class="cls-2" d="M10.3,64.41c2.44-5.29,4.9-10.58,7.74-15.68C20.67,44,24,40.26,27.27,36c6.67-8.77,11.6-19.18,17.3-28.61,1-1.66-1.6-3.17-2.6-1.52-5.86,9.71-10.88,20.72-18,29.54C17,43.9,12.29,53,7.7,62.9c-.8,1.74,1.79,3.27,2.6,1.51Z" transform="translate(-7.5 -5.17)"/><path class="cls-2" d="M67.38,32.68a10.08,10.08,0,0,1,3.07,2c5.59,7.62,8.64,15.74,12.7,23.87a21.33,21.33,0,0,0,7.43,7.47" transform="translate(-7.5 -5.17)"/><path class="cls-2" d="M66.62,34c6.34,3.2,9.67,13.61,12.51,19.67,2.73,5.82,5.34,10.05,10.69,13.7,1.6,1.09,3.1-1.51,1.52-2.59-6.87-4.69-9.14-11.9-12.68-19.06-2.54-5.15-5.16-11.6-10.52-14.31-1.72-.87-3.24,1.72-1.52,2.59Z" transform="translate(-7.5 -5.17)"/><path class="cls-1" d="M43.39,6.86c4.12,4.28,7.06,9.52,9.72,14.79,2.53,5,4.74,10.29,8.59,14.44" transform="translate(-7.5 -5.17)"/><path class="cls-2" d="M42.33,7.92c8,8.65,10.69,20.44,18.31,29.23,1.27,1.46,3.38-.67,2.12-2.12C55.16,26.27,52.41,14.46,44.45,5.8c-1.31-1.43-3.43.7-2.12,2.12Z" transform="translate(-7.5 -5.17)"/><path class="cls-1" d="M67.33,32.74a18.69,18.69,0,0,0-2.46,1.89,9.17,9.17,0,0,1-2.66,2" transform="translate(-7.5 -5.17)"/><path class="cls-2" d="M66.58,31.44a22.67,22.67,0,0,0-2.64,2,9.76,9.76,0,0,1-2.49,1.89,1.51,1.51,0,0,0-.54,2,1.54,1.54,0,0,0,2.05.54c2-.86,3.35-2.73,5.13-3.9,1.61-1.05.11-3.65-1.51-2.59Z" transform="translate(-7.5 -5.17)"/><path class="cls-1" d="M59,30.14q5.52-6.48,11.29-12.74" transform="translate(-7.5 -5.17)"/><path class="cls-2" d="M60,31.2q5.52-6.46,11.29-12.74c1.31-1.42-.81-3.54-2.12-2.12q-5.76,6.27-11.29,12.74c-1.25,1.46.86,3.6,2.12,2.12Z" transform="translate(-7.5 -5.17)"/><path class="cls-2" d="M70.85,17.14A33.51,33.51,0,0,0,73.5,20c5.08,8.13,6.6,16.76,13.2,23.36C92.29,48.42,97.37,54,100,60.57" transform="translate(-7.5 -5.17)"/><path class="cls-2" d="M69.79,18.2c5.63,6.7,7.57,15.13,12.55,22.23C87.56,47.87,95,52.67,98.7,61.33c.77,1.77,3.36.24,2.6-1.51A42.74,42.74,0,0,0,94.43,49c-3.36-3.92-7.55-7-10.36-11.42-4.57-7.1-6.67-15-12.15-21.55-1.25-1.48-3.36.66-2.13,2.13Z" transform="translate(-7.5 -5.17)"/><path class="cls-2" d="M46.06,11.72c-.84,5.16,3,9.89,3.74,15.06.32,2.16.08,4.37.37,6.53a13.68,13.68,0,0,0,1.91-5.79c.06-.59.16-1.31.71-1.53a1.17,1.17,0,0,1,.84,0,3.72,3.72,0,0,1,2.17,3.14,15.37,15.37,0,0,1-.32,4A16.65,16.65,0,0,0,56,40.69a10,10,0,0,0,4.69,5.77c1.31.67,3.24.82,4-.46l2.46,5.3a10.92,10.92,0,0,0,2.76,4.15A1.26,1.26,0,0,0,72,55.23a6.48,6.48,0,0,0,1.14-3,1.82,1.82,0,0,1,.39-1.18c.58-.51,1.45,0,2,.56L84.44,60" transform="translate(-7.5 -5.17)"/><path class="cls-2" d="M44.56,11.72c-.27,3.44.71,6.24,1.91,9.41C48,25.21,48.31,29,48.67,33.31c.11,1.38,2,2.18,2.79.76s1.06-3.31,1.84-4.63c.13-2.4.48-2,1,1.06-.11.89-.23,1.77-.35,2.66-.32,3.26-.26,6.52,1.22,9.52,1.8,3.66,6.71,8,10.51,4.38l-2.36-.31c1.08,2.33,3.87,11.88,8.33,10.58,1.69-.49,2.42-4.56,2.92-4.66S78,56,78.31,56.3l5.07,4.78c1.41,1.33,3.53-.79,2.12-2.12-2.53-2.39-5-4.81-7.61-7.18-1.23-1.14-2.63-2.84-4.54-2.16-1.22.43-.84,1.16-1.59,1.93-2.22,2.27-1.9,1.08-3.09-.44s-1.9-4.08-2.73-5.87a1.51,1.51,0,0,0-2.35-.3c-3.88,3.67-6.77-6.81-6.81-8.73a40,40,0,0,1,.4-4.38c.19-2.22.27-4.62-1.56-6.26-4.88-4.39-5.48,4.59-6.75,7l2.8.75c-.28-3.43-.13-6.68-1.18-10C49.24,19.4,47.23,16,47.56,11.72c.15-1.92-2.85-1.91-3,0Z" transform="translate(-7.5 -5.17)"/><path class="cls-2" d="M47.34,16.08c.09,2.1.88,3.9,1.42,5.9s.53,3.77,1.44,5.54c.65,1.26,2.3.73,2.74-.36A5.29,5.29,0,0,0,53,23.21c-.63-1.81-3.53-1-2.89.8a3,3,0,0,1-.07,2.35L52.79,26c-.77-1.49-.71-3.22-1.14-4.81s-1.23-3.3-1.31-5.11-3.07-1.93-3,0Z" transform="translate(-7.5 -5.17)"/><path class="cls-2" d="M55,33.88c1.26,1.69,1.19,2.61,1.33,4.56a12.11,12.11,0,0,0,1.27,4.08c1.23,2.6,3.32,4.2,6.25,3.62,1.89-.37,1.09-3.27-.8-2.89-3,.59-3.64-4.47-3.68-6.31a7.45,7.45,0,0,0-1.78-4.57c-1.14-1.53-3.74,0-2.59,1.51Z" transform="translate(-7.5 -5.17)"/><path class="cls-2" d="M58.92,34.31c-1,1.88-.42,4.44.18,6.38a5.65,5.65,0,0,0,5.06,3.7c1.92-.1,1.93-3.1,0-3-1.25.06-2.13-1.23-2.31-2.29s-.81-2.37-.34-3.28c.88-1.71-1.71-3.23-2.59-1.51Z" transform="translate(-7.5 -5.17)"/><path class="cls-2" d="M60.16,37.16c1.37,6.21,5.83,10.28,8.09,16,.7,1.78,3.6,1,2.89-.79-2.25-5.73-6.74-9.91-8.09-16-.41-1.88-3.3-1.09-2.89.8Z" transform="translate(-7.5 -5.17)"/><path class="cls-2" d="M72.47,51.53a7.87,7.87,0,0,0-1.56-2.44,15.12,15.12,0,0,1-2.25-5,40.91,40.91,0,0,0-3.9-8.18,1.52,1.52,0,0,0-2.74.36c-.73,2.58,1.09,5.88,2.65,7.85,2.27,2.86,5.62,5.07,8.41,7.39,1.47,1.23,3.6-.88,2.12-2.12C73.13,47.67,71,46,69,44.2c-1.7-1.49-4.77-4.61-4.06-7.12l-2.74.36a40.73,40.73,0,0,1,4.08,9,16.1,16.1,0,0,0,1.17,3c.58,1,1.77,1.81,2.16,2.89.64,1.81,3.54,1,2.89-.79Z" transform="translate(-7.5 -5.17)"/><path class="cls-2" d="M68.76,35.25c0,2.94,1.68,5.58,1.91,8.57a1.52,1.52,0,0,0,2.56,1.06c1-1.05.78-1.79,1.35-3.09l-1.69.69c-1.1-.27.08.8.42,1.58l1.38,3.18,2.75,6.36c.77,1.76,3.35.24,2.59-1.52l-3.85-8.9c-.56-1.28-.93-3.22-2.49-3.6a1.53,1.53,0,0,0-1.7.69c-.29.68-.41,2-.88,2.49l2.56,1.06c-.22-2.9-1.94-5.77-1.91-8.57,0-1.93-3-1.93-3,0Z" transform="translate(-7.5 -5.17)"/><path class="cls-2" d="M67.34,34.51a36.05,36.05,0,0,0,.39,5.19c.32,1.92,1.21,3.71,1.27,5.67a1.51,1.51,0,0,0,2.56,1.06c.93-.94,2.11.63,2.47,1.23A8.45,8.45,0,0,1,75,50c.48,1.86,3.38,1.07,2.9-.8-1-3.84-4.57-8.82-8.42-4.92L72,45.37a18.06,18.06,0,0,0-.92-4.46,25.06,25.06,0,0,1-.74-6.4c0-1.92-3-1.93-3,0Z" transform="translate(-7.5 -5.17)"/><path class="cls-2" d="M52.08,28.5c3.66,2.68,3.39,8.19,4.32,12.1s2,7.57,3.05,11.35c.31,1.14,2.21,1.59,2.74.36l2-4.68c.76-1.76-1.83-3.29-2.59-1.52l-2,4.68,2.74.36a163.58,163.58,0,0,1-4-16.17c-.62-3.82-1.61-6.75-4.78-9.07-1.56-1.14-3.06,1.46-1.52,2.59Z" transform="translate(-7.5 -5.17)"/><path class="cls-2" d="M41.86,9.76A32.52,32.52,0,0,1,48.1,23.22c.4,1.89,3.29,1.09,2.89-.79A35.68,35.68,0,0,0,44,7.64c-1.2-1.52-3.31.62-2.12,2.12Z" transform="translate(-7.5 -5.17)"/><path class="cls-2" d="M70.71,20.11A44.22,44.22,0,0,1,78.54,40.5l.79-5.39A37.07,37.07,0,0,1,87,50.23a3.88,3.88,0,0,0,1,2.23l.16-5.15c1.42,3.77,2.91,7.65,5.71,10.54a19.64,19.64,0,0,0-1.65-7c3.21,2.65,4.62,6.84,5.89,10.8l-3.6-5.08" transform="translate(-7.5 -5.17)"/><path class="cls-2" d="M69.42,20.87a46.26,46.26,0,0,1,7.68,20c.19,1.44,2.68,1.43,2.89,0l.78-5.39-2.5.67A36.8,36.8,0,0,1,84,45.93c.95,2.42,1.25,5.15,2.72,7.29a1.52,1.52,0,0,0,2.8-.76l.16-5.15-3,.4c1.55,4.07,3.2,7.9,6.1,11.2a1.51,1.51,0,0,0,2.56-1.06,27,27,0,0,0-1.7-7.35L91.22,52c3,2.8,4.27,6.35,5.5,10.14L99.46,61l-3.6-5.09c-1.11-1.56-3.71-.06-2.59,1.52l3.6,5.08c.92,1.3,3.31.57,2.74-1.16C98.22,57,96.69,53,93.34,49.84c-1-1-3.07,0-2.5,1.46a23.35,23.35,0,0,1,1.59,6.55L95,56.79c-2.57-2.92-4-6.27-5.33-9.87a1.5,1.5,0,0,0-2.94.39l-.16,5.15,2.79-.75c-1.79-2.61-2.25-6.56-3.64-9.47a42.13,42.13,0,0,0-5.32-8.19,1.51,1.51,0,0,0-2.51.67L77.1,40.1H80a48,48,0,0,0-8-20.75c-1.08-1.58-3.68-.08-2.59,1.52Z" transform="translate(-7.5 -5.17)"/><path class="cls-2" d="M92.74,55.64A5.43,5.43,0,0,0,94,57.18c.41.35.88.63,1.28,1a10.53,10.53,0,0,1,2.14,3.67c.16.35.52.76.85.56s.23-.37.25-.59l.12-1.61" transform="translate(-7.5 -5.17)"/><path class="cls-2" d="M91.45,56.4a10.85,10.85,0,0,0,2.62,2.7c1.12.94,1.4,2.29,2.07,3.5a2.19,2.19,0,0,0,2.55,1.26c1.51-.51,1.37-2.37,1.47-3.65.14-1.93-2.86-1.92-3,0A4.18,4.18,0,0,1,97,61.66l.89-.69-.25,0,1.16.15c-.34-.16-.61-1.33-.77-1.65a9,9,0,0,0-1.1-1.77c-.88-1.08-2.16-1.64-2.89-2.86a1.5,1.5,0,0,0-2.59,1.52Z" transform="translate(-7.5 -5.17)"/><path class="cls-2" d="M99.66,60.59a3.7,3.7,0,0,1-1.41,2.24" transform="translate(-7.5 -5.17)"/><path class="cls-2" d="M98.21,60.19a3.83,3.83,0,0,1-.16.58c.09-.22-.16.26-.19.31s-.11.17,0,.07l-.2.22a3.39,3.39,0,0,1-.45.4,1.5,1.5,0,0,0,0,2.12,1.54,1.54,0,0,0,2.12,0A5.08,5.08,0,0,0,101.1,61a1.5,1.5,0,1,0-2.89-.8Z" transform="translate(-7.5 -5.17)"/><path class="cls-2" d="M80.29,37.38c1.63.83,2.65,2.49,3.59,4.06l1.81,3.05a17.34,17.34,0,0,1,1.24,2.33c.75,1.84.87,3.9,1.8,5.65" transform="translate(-7.5 -5.17)"/><path class="cls-2" d="M79.53,38.67c2.41,1.51,4,4.87,5.31,7.33s1.54,4.87,2.6,7.23c.79,1.76,3.37.24,2.59-1.51-1.38-3.06-1.9-6.06-3.65-9-1.49-2.52-2.79-5-5.33-6.64-1.65-1-3.15,1.57-1.52,2.59Z" transform="translate(-7.5 -5.17)"/><path class="cls-2" d="M37.58,26.6c-1.12,2.65-1.76,5.69-2.86,8.24C33.37,38,30.25,38.44,28,40.76c-4.42,4.66-1.09,10.52-4.1,15.47-.75,1.23.8,2.92,2.06,2.05,2.19-1.52,5.1-4.43,5.24-7.26-.09,1.66,2.71,2.09,2.94.4.63-4.63,3.07-9,2.84-13.77a1.5,1.5,0,0,0-3,0,19,19,0,0,1-4.72,9.8c-1.62,1.92,1.22-2.57,1.09-2.34.79-1.39,1.77-3,3.35-3.53l-1.85-1.84c-.56,2.71-2.62,4.6-3.23,7.31-.42,1.88,2.47,2.68,2.9.8.6-2.71,2.66-4.59,3.23-7.32a1.52,1.52,0,0,0-1.85-1.84c-3.6,1.21-10.72,11.77-4.59,13.41a1.49,1.49,0,0,0,1.46-.39A24.88,24.88,0,0,0,37,37.65H34c.21,4.46-2.14,8.63-2.73,13l3,.39c.08-1.69-.42-3.84-2.66-3.52-3,.43-4.87,6.64-7.1,8.19l2.05,2.05c3.34-5.49-.3-12.37,5.59-16.41,1.74-1.19,4.35-1.92,5.33-4a7.85,7.85,0,0,0,.33-2.22,29.63,29.63,0,0,1,2.39-7c.74-1.76-1.84-3.29-2.59-1.51Z" transform="translate(-7.5 -5.17)"/><path class="cls-2" d="M24.93,48.93l-.51,2.38a1.5,1.5,0,1,0,2.89.79l.51-2.37a1.53,1.53,0,0,0-1.05-1.84,1.5,1.5,0,0,0-1.84,1Z" transform="translate(-7.5 -5.17)"/><path class="cls-2" d="M28.75,51.08V48.33a1.5,1.5,0,0,0-3,0v2.75a1.5,1.5,0,0,0,3,0Z" transform="translate(-7.5 -5.17)"/><path class="cls-2" d="M71.63,52.65a1.5,1.5,0,0,0,0-3,1.5,1.5,0,0,0,0,3Z" transform="translate(-7.5 -5.17)"/><path class="cls-2" d="M20.44,64.2c-1.93.38-5.51,1-5.47,3.6s3.83,3.13,5.76,3.5c1.26.24,1.8-1.69.54-1.93-.83-.16-1.65-.3-2.45-.53-.44-.12-1.79-.45-1.85-1-.11-1.1,3.27-1.53,4-1.67,1.26-.25.72-2.18-.54-1.93Z" transform="translate(-7.5 -5.17)"/><path class="cls-2" d="M19.86,71.22c12.51,3.63,25.47,2.44,38.16.53,3.19-.48,6.37-1,9.57-1.43,2-.27,4.32-.58,6-1.9,3.34-2.74-.28-6.44-3-7.88-1.13-.61-2.15,1.11-1,1.73,2.09,1.12,5.19,3.89,1.25,5.35a29.39,29.39,0,0,1-6,1c-4.87.68-9.7,1.58-14.58,2.15-10,1.17-20.09,1.3-29.82-1.53a1,1,0,0,0-.53,1.93Z" transform="translate(-7.5 -5.17)"/><path class="cls-2" d="M46.06,56.4a3.24,3.24,0,0,1-.68,1,.5.5,0,0,0,.35.85,1.94,1.94,0,0,0,.34,0l-.48-.64c-.09.32-.44.54-.64.78s-.19.77.22.83a2.62,2.62,0,0,0,1.11-.14l-.56-.23,0,.08v-.5c-.22.43-.88.59-1.1,1.05s.09.75.49.85a8.69,8.69,0,0,0,1.91.12A2.07,2.07,0,0,0,48.35,60c.33-.26.09-.71-.22-.83s-.61-.32-.69-.57l-.12.49c-.07.08.4,0,.44,0a1.07,1.07,0,0,0,.39-.4.5.5,0,0,0-.43-.75l-.29-.18-.48.64h.23l.13-1h-.06l.36.14c-.37-.31-.45-.81-.66-1.21-.31-.56-1.18-.06-.87.51s.5,1.56,1.23,1.56c.56,0,.7-.86.14-1a1.21,1.21,0,0,0-.5,0,.5.5,0,0,0-.48.63,1.26,1.26,0,0,0,1.25.91l-.43-.76c0,.07-.53.08-.66.21a.56.56,0,0,0-.14.56,2.27,2.27,0,0,0,1.38,1.21l-.22-.83a1.51,1.51,0,0,1-1,.15c-.19,0-.37,0-.56-.06s-.58.07-.75,0l.23.3,0-.06,0,.38c.06-.13.62-.48.85-.71a.71.71,0,0,0,.21-.92.5.5,0,0,0-.56-.23c-.21,0-.36.17-.59.14l.22.83a3.37,3.37,0,0,0,.91-1.21.51.51,0,0,0-.49-.63,1.94,1.94,0,0,1-.34,0l.35.86a3.84,3.84,0,0,0,.84-1.19c.29-.57-.57-1.08-.86-.51Z" transform="translate(-7.5 -5.17)"/><path class="cls-2" d="M46,60.09c.07.33-.08.65.26.87a.59.59,0,0,0,.7,0,.85.85,0,0,0-.36-1.41.51.51,0,0,0-.62.35c-.08.53,0,1.42.79,1.2s.6-1.2.16-1.52a.49.49,0,0,0-.51,0,1,1,0,0,0-.35.8l1,.13c0,.05,0-.39,0-.29l-.61.35h0l-.35-.35,0,.27,1-.13c0-.18.1-.31,0-.51a.51.51,0,0,0-.73-.3c-.43.19-.22.53-.33.87-.2.61.77.87,1,.26a3.14,3.14,0,0,0,0-.53l-.23.3.06,0-.73-.3,0,.06.05-.38a1.22,1.22,0,0,0-.11.82c.09.56,1,.43,1-.13,0-.39,0-.76-.45-.9a.5.5,0,0,0-.62.35,3.47,3.47,0,0,0,0,.56c0,.55.9.69,1,.13a2.6,2.6,0,0,1,.09-.47l-.23.3,0,0h-.51l.05,0L46.21,60a1,1,0,0,1,0,.24c0,.23,0,.25,0,.06l.29-.23.23.06.23.3s0-.54,0-.32l-.62.35c-.13-.2-.18-.22-.15-.07l.23-.3h.35l.23.29c0-.18,0-.37,0-.57-.13-.63-1.1-.36-1,.27Z" transform="translate(-7.5 -5.17)"/><path class="cls-2" d="M46,57.75a10.47,10.47,0,0,1,0,1.68l.23-.3.11,0,.29.73,0,0-.3.23a2.91,2.91,0,0,1,.59,0,.5.5,0,0,0,0-1c-.38,0-1-.12-1.17.29a.5.5,0,0,0,.3.73c1.28.4.93-1.62.93-2.31a.5.5,0,0,0-1,0Z" transform="translate(-7.5 -5.17)"/><path class="cls-2" d="M37.84,54.21a5.27,5.27,0,0,1-1.1,1.59c-.35.31-.05.81.35.85a2.37,2.37,0,0,0,.53,0L37.14,56c-.15.55-.72.92-1.07,1.33-.22.25-.19.78.22.84A4.11,4.11,0,0,0,37.88,58l-.57-.23.07.12v-.5c-.28.53-3,2.06-1.13,2.54a11.57,11.57,0,0,0,1.56.11,10.24,10.24,0,0,0,1.36.08A3,3,0,0,0,41,59.48c.33-.27.08-.71-.22-.84s-1.12-.58-1.27-1.07l-.13.48s.66,0,.76-.09a1.46,1.46,0,0,0,.5-.52.51.51,0,0,0-.43-.76l-.72-.47-.48.63.44,0,.13-1c.15,0-.38-.74-.42-.83-.16-.33-.22-.65-.4-1-.31-.56-1.17-.06-.86.51s.69,2.29,1.68,2.29a.51.51,0,0,0,.13-1,1.65,1.65,0,0,0-.7,0,.52.52,0,0,0-.48.64,1.65,1.65,0,0,0,1.68,1.2l-.43-.75c-.31.47-1.45,0-1.21,1,.2.82,1.24,1.4,2,1.69l-.22-.83a3.18,3.18,0,0,1-2.21.29,3.77,3.77,0,0,0-.76-.08c-.38-.1-.63.07-.75.5a1.54,1.54,0,0,0,.19-.17,6.06,6.06,0,0,0,1.34-1.19.7.7,0,0,0,.08-.87.51.51,0,0,0-.56-.23c-.39.08-.58.29-1.06.22l.22.84a5,5,0,0,0,1.34-1.78.51.51,0,0,0-.49-.63,2.37,2.37,0,0,1-.53,0l.35.85a5.83,5.83,0,0,0,1.27-1.79c.29-.57-.58-1.08-.87-.5Z" transform="translate(-7.5 -5.17)"/><path class="cls-2" d="M37.76,59.74c.13.33-.1.75.14,1a.67.67,0,0,0,.93.1c.28-.23.26-.78.2-1.1a.9.9,0,0,0-.68-.62c-.24,0-.57.06-.61.35a3.22,3.22,0,0,0,0,.93A.64.64,0,0,0,38,61a.7.7,0,0,0,1.06-.53c.07-.44.16-1.18-.41-1.32s-.75.69-.81,1.13c-.09.62.84.91,1,.27a1.53,1.53,0,0,0,0-.42c0-.16.05-.4-.1-.13l-.56.23.07,0-.35-.35a4.21,4.21,0,0,1,0,.5l1-.13c-.05-.3.19-.51.06-.81a.55.55,0,0,0-.54-.35.59.59,0,0,0-.53.41,1.35,1.35,0,0,0,0,.4v.31c0,.2,0,.2,0,0-.34.54.52,1,.87.5a.78.78,0,0,0,.1-.36c0-.09.07-.56-.09-.41l-.35.14h.05L38.17,60l0,0-.14-.36c0-.25-.1.23-.11.3a1.87,1.87,0,0,0,0,.58c.09.55,1,.43,1-.13s0-1-.5-1.14a.52.52,0,0,0-.56.23c-.17.3,0,.49,0,.79l1,.27A4.4,4.4,0,0,1,39,59.8l-.23.3.06,0-.39,0h.05l-.3-.23,0-.11,0,.29v.23l.3-.23c.25.45.37.55.36.29a1.41,1.41,0,0,0,0-.29s0-.39-.06-.28l-.61.35s0,0-.05-.06a2.81,2.81,0,0,1,0,.29l.23-.3h.27l.23.3c-.05-.3.07-.59-.05-.89-.23-.59-1.2-.34-1,.27Z" transform="translate(-7.5 -5.17)"/><path class="cls-2" d="M37.77,56.16V58.6c.33,0,.39,0,.17-.06l.3.73,0-.05-.3.23a4.68,4.68,0,0,1,1,0,.5.5,0,0,0,0-1c-.47,0-1.31-.19-1.58.32a.5.5,0,0,0,.3.73.76.76,0,0,0,1.09-.68c.08-.87,0-1.79,0-2.66a.5.5,0,0,0-1,0Z" transform="translate(-7.5 -5.17)"/><path class="cls-2" d="M68.19,64.23a6.27,6.27,0,0,1-1.29,1.86c-.35.31-.05.81.35.85a2.58,2.58,0,0,0,.62,0l-.48-.63c-.19.66-.85,1.09-1.27,1.58-.22.25-.18.78.22.84a4.43,4.43,0,0,0,1.8-.26l-.56-.23.07.15V67.9c-.29.58-3.42,2.32-1.35,2.84a12,12,0,0,0,1.8.12,13.61,13.61,0,0,0,1.56.1,3.45,3.45,0,0,0,2-.72c.33-.26.08-.71-.22-.83-.52-.22-1.35-.7-1.53-1.3l-.13.48s.78-.06.89-.12a1.49,1.49,0,0,0,.56-.58.5.5,0,0,0-.43-.75l-.91-.61-.48.63.52,0,.14-1c-.29,0-.85-1.81-1-2.12-.31-.56-1.17-.06-.86.51.4.73.78,2.61,1.88,2.61a.5.5,0,0,0,.13-1,1.77,1.77,0,0,0-.79-.06.52.52,0,0,0-.49.64,1.87,1.87,0,0,0,1.88,1.34l-.43-.75c-.37.55-1.63,0-1.4,1.07.2.91,1.43,1.59,2.2,1.91L71,69.53a3.69,3.69,0,0,1-2.63.36,6.11,6.11,0,0,0-.86-.09.76.76,0,0,0-.91.43,1.12,1.12,0,0,0,.2-.18c.56-.55,2.17-1.32,1.64-2.29a.51.51,0,0,0-.57-.23c-.47.09-.67.34-1.27.25l.23.84a5.86,5.86,0,0,0,1.52-2,.51.51,0,0,0-.48-.64,2.58,2.58,0,0,1-.62,0l.35.85a6.47,6.47,0,0,0,1.45-2.06c.3-.57-.57-1.08-.86-.5Z" transform="translate(-7.5 -5.17)"/><path class="cls-2" d="M68.1,70.58c.15.37-.11.86.15,1.2a.71.71,0,0,0,1,.1c.3-.26.27-.85.2-1.2a1,1,0,0,0-.73-.66.51.51,0,0,0-.61.35,5.25,5.25,0,0,0,0,1,.67.67,0,0,0,.22.6.72.72,0,0,0,1.15-.5c.08-.45.2-1.25-.36-1.43-.74-.25-.83.76-.89,1.23-.09.62.85.91,1,.27a1.88,1.88,0,0,0,0-.47c0-.12,0-.44-.11-.19l-.43.25h0L68.39,71q-.14-.18-.06.09l0,.32,1-.14c0-.31.2-.55.1-.86a.58.58,0,0,0-.55-.42.61.61,0,0,0-.56.42,1.32,1.32,0,0,0,0,.44v.36c0,.22,0,.23,0,0-.35.54.52,1.05.86.5a.7.7,0,0,0,.11-.38s0-.63-.08-.53l-.35.15h.06l-.35-.14,0,0-.15-.36c0-.13,0,0,0,.06a1.07,1.07,0,0,0-.08.32,2.17,2.17,0,0,0,.05.62c.09.55,1,.43,1-.13s0-1.24-.61-1.26a.53.53,0,0,0-.5.29c-.15.29,0,.55,0,.85l1,.27a4.09,4.09,0,0,1,.17-.86l-.23.3.06,0-.38,0,0,0-.3-.23c0-.12,0-.12,0,0V71a2.16,2.16,0,0,0,0,.31l.29-.23c.24.45.35.52.32.19a2.35,2.35,0,0,0,0-.26c0-.07,0-.44-.06-.35l-.61.35s0,.23,0,.36l.23-.3h.23l.23.3c-.05-.34.08-.69-.05-1-.23-.59-1.2-.33-1,.27Z" transform="translate(-7.5 -5.17)"/><path class="cls-2" d="M68.12,66.45v2.83c.28.07.31.07.1,0l.3.73,0-.06-.3.23a5.72,5.72,0,0,1,1.17,0,.5.5,0,0,0,0-1c-.51,0-1.47-.23-1.76.33a.5.5,0,0,0,.29.73.8.8,0,0,0,1.17-.71c.09-1,0-2.08,0-3.09a.5.5,0,0,0-1,0Z" transform="translate(-7.5 -5.17)"/><path class="cls-2" d="M21.54,68.05a4.6,4.6,0,0,1-.94,1.36.5.5,0,0,0,.35.85,1.78,1.78,0,0,0,.46,0l-.48-.63c-.13.46-.61.77-.91,1.12s-.18.77.22.83a3.4,3.4,0,0,0,1.41-.19l-.57-.23.06.11v-.5c-.25.47-2.7,1.87-.93,2.29a10.05,10.05,0,0,0,1.34.09,9.51,9.51,0,0,0,1.19.08,2.67,2.67,0,0,0,1.61-.57c.33-.26.09-.71-.22-.84s-.92-.47-1-.87l-.13.48a4.41,4.41,0,0,0,.64-.07,1.3,1.3,0,0,0,.46-.47.5.5,0,0,0-.44-.75l-.55-.36-.48.63H23l.13-1c.25,0-.23-.54-.3-.68s-.19-.56-.34-.83c-.31-.57-1.18-.06-.87.5s.62,2,1.51,2a.5.5,0,0,0,.13-1,1.44,1.44,0,0,0-.62,0,.5.5,0,0,0-.48.63,1.53,1.53,0,0,0,1.51,1.1l-.43-.76c-.12.19-.71.1-.91.32a.58.58,0,0,0-.14.58c.19.73,1.09,1.25,1.73,1.51L23.65,72a2.69,2.69,0,0,1-1.83.24,3.08,3.08,0,0,0-.68-.08c-.37-.09-.58.1-.61.56l.18-.15a5.39,5.39,0,0,0,1.16-1,.69.69,0,0,0,.08-.83.52.52,0,0,0-.57-.23c-.32.06-.49.24-.87.19l.22.83a4.34,4.34,0,0,0,1.16-1.56.5.5,0,0,0-.48-.63,1.78,1.78,0,0,1-.46,0l.35.86a5,5,0,0,0,1.1-1.56c.29-.57-.57-1.08-.86-.51Z" transform="translate(-7.5 -5.17)"/><path class="cls-2" d="M21.46,72.87c.12.32-.1.71.17,1a.67.67,0,0,0,.86,0,1,1,0,0,0-.43-1.6c-.25,0-.57.06-.62.35-.09.57,0,1.67.85,1.4.65-.2.65-1.37.17-1.72a.49.49,0,0,0-.51,0c-.33.23-.34.59-.4,1-.08.62.88.9,1,.26a1.63,1.63,0,0,0,0-.38c0-.15,0-.3-.09-.07l-.56.23.05,0L21.61,73a2.73,2.73,0,0,1,0,.41l1-.14c0-.24.14-.4.05-.67a.5.5,0,0,0-.48-.37.57.57,0,0,0-.52.28c-.15.27,0,.57-.09.84-.2.61.76.88,1,.27,0-.1.11-.69-.05-.54l-.35.15h.05l-.49-.37,0,.09.05-.39a1.44,1.44,0,0,0-.12,1c.09.55,1,.43,1-.13s0-.88-.48-1a.5.5,0,0,0-.56.23c-.15.26,0,.42-.05.7l1,.26a3.34,3.34,0,0,1,.12-.63l-.23.3.05,0H22l.07,0-.25-.43a1.82,1.82,0,0,1,0,.33c0,.09-.08.31,0,.16l.3-.23.17.06.23.3a2.26,2.26,0,0,1,0-.37s0-.32,0-.14l-.62.35c-.07-.15-.1-.16-.09,0v.16l.23-.3h.31l.23.3c0-.25.05-.51,0-.76-.23-.6-1.19-.34-1,.26Z" transform="translate(-7.5 -5.17)"/><path class="cls-2" d="M21.47,69.77v2.1c.37,0,.45-.06.24-.12l.29.74,0,0-.3.23a4.61,4.61,0,0,1,.83,0,.5.5,0,0,0,0-1c-.43,0-1.17-.17-1.42.3a.51.51,0,0,0,.3.74.72.72,0,0,0,1-.66c.06-.75,0-1.53,0-2.29a.5.5,0,0,0-1,0Z" transform="translate(-7.5 -5.17)"/><path class="cls-2" d="M30.06,58.4a3.24,3.24,0,0,1-.68,1,.5.5,0,0,0,.35.85,1.94,1.94,0,0,0,.34,0l-.48-.64c-.09.32-.44.54-.64.78s-.19.77.22.83a2.62,2.62,0,0,0,1.11-.14l-.56-.23,0,.08v-.5c-.22.43-.88.59-1.1,1.05s.09.75.49.85a8.69,8.69,0,0,0,1.91.12A2.07,2.07,0,0,0,32.35,62c.33-.26.09-.71-.22-.83s-.61-.32-.69-.57l-.12.49c-.07.08.4,0,.44,0a1.07,1.07,0,0,0,.39-.4.5.5,0,0,0-.43-.75l-.29-.18-.48.64h.23l.13-1h-.06l.36.14c-.37-.31-.45-.81-.66-1.21-.31-.56-1.18-.06-.87.51s.5,1.56,1.23,1.56c.56,0,.7-.86.14-1a1.21,1.21,0,0,0-.5,0,.5.5,0,0,0-.48.63,1.26,1.26,0,0,0,1.25.91l-.43-.76c-.05.07-.53.08-.66.21a.56.56,0,0,0-.14.56,2.27,2.27,0,0,0,1.38,1.21l-.22-.83a1.51,1.51,0,0,1-1,.15c-.19,0-.37,0-.56-.06s-.58.07-.75,0l.23.3,0-.06-.05.38c.06-.13.62-.48.85-.71a.71.71,0,0,0,.21-.92.5.5,0,0,0-.56-.23c-.21,0-.36.17-.59.14l.22.83a3.37,3.37,0,0,0,.91-1.21.51.51,0,0,0-.49-.63,1.94,1.94,0,0,1-.34,0l.35.86a3.84,3.84,0,0,0,.84-1.19c.29-.57-.57-1.08-.86-.51Z" transform="translate(-7.5 -5.17)"/><path class="cls-2" d="M30,62.09c.07.33-.08.65.26.87a.59.59,0,0,0,.7,0,.85.85,0,0,0-.36-1.41.51.51,0,0,0-.62.35c-.08.53,0,1.42.79,1.2s.6-1.2.16-1.52a.49.49,0,0,0-.51,0,1,1,0,0,0-.35.8l1,.13c0,.05,0-.39,0-.29l-.61.35h0l-.35-.35,0,.27,1-.13c0-.18.1-.31,0-.51a.51.51,0,0,0-.73-.3c-.43.19-.22.53-.33.87-.2.61.77.87,1,.26a3.14,3.14,0,0,0,0-.53l-.23.3.06,0-.73-.3,0,.06,0-.38a1.22,1.22,0,0,0-.11.82c.09.56,1,.43,1-.13,0-.39,0-.76-.45-.9a.5.5,0,0,0-.62.35,3.47,3.47,0,0,0,0,.56c-.05.55.9.69,1,.13a2.6,2.6,0,0,1,.09-.47l-.23.3,0,0h-.51l.05,0L30.21,62a1,1,0,0,1,0,.24c0,.23,0,.25,0,.06l.29-.23.23.06.23.3s0-.54,0-.32l-.62.35c-.13-.2-.18-.22-.15-.07l.23-.3h.35l.23.29c0-.18,0-.37,0-.57-.13-.63-1.1-.36-1,.27Z" transform="translate(-7.5 -5.17)"/><path class="cls-2" d="M30,59.75a10.47,10.47,0,0,1,0,1.68l.23-.3.11,0,.29.73,0,0-.3.23a2.91,2.91,0,0,1,.59,0,.5.5,0,0,0,0-1c-.38,0-.95-.12-1.17.29a.5.5,0,0,0,.3.73c1.28.4.93-1.62.93-2.31a.5.5,0,0,0-1,0Z" transform="translate(-7.5 -5.17)"/><path class="cls-2" d="M28.19,66.23a6.27,6.27,0,0,1-1.29,1.86c-.35.31,0,.81.35.85a2.58,2.58,0,0,0,.62,0l-.48-.63c-.19.66-.85,1.09-1.27,1.58-.22.25-.18.78.22.84a4.43,4.43,0,0,0,1.8-.26l-.56-.23.07.15V69.9c-.29.58-3.42,2.32-1.35,2.84a12,12,0,0,0,1.8.12,13.61,13.61,0,0,0,1.56.1,3.45,3.45,0,0,0,2.05-.72c.33-.26.08-.71-.22-.83-.52-.22-1.35-.7-1.53-1.3l-.13.48c.05,0,.78-.06.89-.12a1.49,1.49,0,0,0,.56-.58.5.5,0,0,0-.43-.75l-.91-.61-.48.63.52,0,.14-1c-.29,0-.85-1.81-1-2.12-.31-.56-1.17-.06-.86.51.4.73.78,2.61,1.88,2.61a.5.5,0,0,0,.13-1,1.77,1.77,0,0,0-.79-.06.52.52,0,0,0-.49.64,1.87,1.87,0,0,0,1.88,1.34l-.43-.75c-.37.55-1.63,0-1.4,1.07.2.91,1.43,1.59,2.2,1.91L31,71.53a3.69,3.69,0,0,1-2.63.36,6.11,6.11,0,0,0-.86-.09.76.76,0,0,0-.91.43,1.12,1.12,0,0,0,.2-.18c.56-.55,2.17-1.32,1.64-2.29a.51.51,0,0,0-.57-.23c-.47.09-.67.34-1.27.25l.23.84a5.86,5.86,0,0,0,1.52-2,.51.51,0,0,0-.48-.64,2.58,2.58,0,0,1-.62,0l.35.85a6.47,6.47,0,0,0,1.45-2.06c.3-.57-.57-1.08-.86-.5Z" transform="translate(-7.5 -5.17)"/><path class="cls-2" d="M28.1,72.58c.15.37-.11.86.15,1.2a.71.71,0,0,0,1,.1c.3-.26.27-.85.2-1.2a1,1,0,0,0-.73-.66.51.51,0,0,0-.61.35,5.25,5.25,0,0,0,0,1,.67.67,0,0,0,.22.6.72.72,0,0,0,1.15-.5c.08-.45.2-1.25-.36-1.43-.74-.25-.83.76-.89,1.23-.09.62.85.91,1,.27a1.88,1.88,0,0,0,0-.47c0-.12,0-.44-.11-.19l-.43.25h0L28.39,73q-.13-.18-.06.09l0,.32,1-.14c0-.31.2-.55.1-.86a.58.58,0,0,0-.55-.42.61.61,0,0,0-.56.42,1.32,1.32,0,0,0,0,.44v.36c0,.22,0,.23,0,0-.35.54.52,1.05.86.5a.7.7,0,0,0,.11-.38s0-.63-.08-.53l-.35.15h.06l-.35-.14,0,0-.15-.36c0-.13,0,0-.05.06a1.07,1.07,0,0,0-.08.32,2.17,2.17,0,0,0,.05.62c.09.55,1,.43,1-.13s0-1.24-.61-1.26a.53.53,0,0,0-.5.29c-.15.29,0,.55,0,.85l1,.27a4.09,4.09,0,0,1,.17-.86l-.23.3.06,0-.38,0,.05,0-.3-.23c0-.12,0-.12,0,0V73a2.16,2.16,0,0,0,0,.31l.29-.23c.24.45.35.52.32.19a2.35,2.35,0,0,0,0-.26c0-.07,0-.44-.06-.35l-.61.35c.05,0,0,.23,0,.36l.23-.3h.23l.23.3c-.05-.34.08-.69-.05-1-.23-.59-1.2-.33-1,.27Z" transform="translate(-7.5 -5.17)"/><path class="cls-2" d="M28.12,68.45v2.83c.28.07.31.07.1,0l.3.73,0-.06-.3.23a5.72,5.72,0,0,1,1.17,0,.5.5,0,0,0,0-1c-.51,0-1.47-.23-1.76.33a.5.5,0,0,0,.29.73.8.8,0,0,0,1.17-.71c.09-1,0-2.08,0-3.09a.5.5,0,0,0-1,0Z" transform="translate(-7.5 -5.17)"/><path class="cls-2" d="M27.84,68c.41.34.17,1.87.13,2.35s-.19.82-.06.21a5,5,0,0,1,.46-1.21c.11-.18-.08-.1,0,.1a3.88,3.88,0,0,1,.3.48,2.88,2.88,0,0,1,.21,1.29,1.35,1.35,0,0,0,.64,1.16c.55.34,1.05-.53.5-.87-.26-.16-.11-1-.17-1.25a3.32,3.32,0,0,0-.38-1c-.24-.42-.66-1.15-1.22-1.18s-.76.65-.93,1.1a3.61,3.61,0,0,0-.49,2.23c.36,1.26,1.57.88,1.94-.16A7.42,7.42,0,0,0,29,69c0-.62.06-1.27-.45-1.7s-1.2.29-.71.71Z" transform="translate(-7.5 -5.17)"/><path class="cls-2" d="M37.83,54a3,3,0,0,1,.94,1.53c.06.27.07.55.12.83a5.93,5.93,0,0,1,.18.66l.15-.36a4.43,4.43,0,0,1-1,0H37.19a.5.5,0,0,0,0,1c.74,0,3.2.43,2.82-1-.16-.59-.18-1.23-.4-1.81a3.86,3.86,0,0,0-1.07-1.57c-.48-.44-1.19.27-.71.7Z" transform="translate(-7.5 -5.17)"/><path class="cls-2" d="M37.67,56a3.3,3.3,0,0,1,.39,1.27,4.45,4.45,0,0,1,.3,1.27c0,.65.35,1.2,1,1.19l-.35-.86c-.18.14-.85.43-1.09.26s-.1-.72,0-1a3.23,3.23,0,0,0,.42-1.66c0-.64-1-.64-1,0s-.44,1.21-.56,1.91a2,2,0,0,0,.24,1.46c.64.7,2.07.21,2.68-.26.35-.28,0-.86-.36-.85-.08,0,0-.78-.06-.85a3.36,3.36,0,0,0-.27-.75c-.21-.56-.16-1.14-.54-1.64s-1.26,0-.87.51Z" transform="translate(-7.5 -5.17)"/><path class="cls-2" d="M56.9,66.13c-1.46-1.64-.27-4.6.84-6,.73-.91,1.49-1.38,1.89-2.54a5.25,5.25,0,0,0-1.06-5.17c-.8-1-2.21.41-1.41,1.41,2.54,3.17-2,5-2.67,7.9-.42,1.92-.34,4.29,1,5.8.86,1,2.27-.45,1.42-1.42Z" transform="translate(-7.5 -5.17)"/><path class="cls-2" d="M61.69,64.14c-.3-.61-.77-1.47-.44-2.17.25-.51.89-.87,1.2-1.37a3.64,3.64,0,0,0,.41-2.83c-.27-1.25-2.2-.72-1.93.54.31,1.43-1.41,2.15-1.71,3.48A5.13,5.13,0,0,0,60,65.15c.58,1.15,2.3.14,1.73-1Z" transform="translate(-7.5 -5.17)"/><path class="cls-2" d="M52.51,56.44c1.12,1.43-1.18,2.34-1.79,3.3a6.24,6.24,0,0,0-.59,4.1c.13,1.27,2.13,1.29,2,0-.11-1.12-.32-2.51.57-3.39.52-.5,1.23-.72,1.65-1.35A3.68,3.68,0,0,0,53.93,55c-.8-1-2.2.41-1.42,1.41Z" transform="translate(-7.5 -5.17)"/><text class="cls-3" transform="translate(0.5 78.77)">Carpathians</text><path class="cls-2" d="M68.45,65.72a1.85,1.85,0,0,0-1.17,1.87,1.14,1.14,0,0,0,.56,1c.47.28,1.09.27,1.16.95s1,.66,1,0l-.08-2c0-.64-1-.64-1,0l.08,2h1A1.86,1.86,0,0,0,69.17,68c-.19-.12-.71-.19-.83-.36a.87.87,0,0,1,.37-1c.63-.14.37-1.1-.26-1Z" transform="translate(-7.5 -5.17)"/><path class="cls-2" d="M70.32,70.55a1.56,1.56,0,0,0-.38-1.4c-.43-.48-1.14.23-.71.71a.48.48,0,0,1,.13.43c-.12.62.85.89,1,.26Z" transform="translate(-7.5 -5.17)"/><path class="cls-2" d="M68.25,65.25v.17a.5.5,0,0,0,1,0v-.17a.5.5,0,0,0-1,0Z" transform="translate(-7.5 -5.17)"/></svg>