<?xml version="1.0" standalone="no"?>
<!DOCTYPE svg PUBLIC "-//W3C//DTD SVG 20010904//EN"
 "http://www.w3.org/TR/2001/REC-SVG-20010904/DTD/svg10.dtd">
<svg version="1.0" xmlns="http://www.w3.org/2000/svg"
 width="900.000000pt" height="900.000000pt" viewBox="0 0 900.000000 900.000000"
 preserveAspectRatio="xMidYMid meet">

<g transform="translate(0.000000,900.000000) scale(0.100000,-0.100000)"
fill="#000000" stroke="none">
<path d="M4163 8105 c-481 -50 -901 -173 -1310 -385 -1109 -574 -1830 -1639
-1953 -2889 -22 -227 -7 -692 30 -903 64 -368 151 -650 298 -963 501 -1072
1497 -1831 2667 -2035 252 -43 628 -61 880 -41 863 69 1638 417 2248 1010 307
299 515 580 708 956 274 534 403 1094 394 1705 -9 558 -133 1066 -381 1562
-542 1082 -1585 1818 -2794 1973 -175 23 -616 28 -787 10z m1417 -1709 l0
-405 -302 -3 c-284 -3 -305 -4 -338 -23 -19 -12 -43 -36 -55 -55 -19 -33 -20
-54 -23 -327 l-3 -293 48 -1 c26 -1 186 -1 356 -1 169 0 309 -3 312 -7 2 -4 0
-48 -5 -97 -5 -49 -18 -195 -29 -324 -11 -129 -24 -263 -27 -297 l-7 -63 -323
0 -324 0 0 -1170 0 -1170 -470 0 -470 0 0 1165 0 1165 -240 0 -240 0 -1 83 c0
45 0 224 0 397 l0 315 233 1 c128 1 236 2 240 3 3 1 8 180 11 399 4 350 7 408
24 487 65 290 233 475 512 564 160 52 241 59 704 60 l417 1 0 -404z"/>
</g>
</svg>
