<?xml version="1.0" standalone="no"?>
<!DOCTYPE svg PUBLIC "-//W3C//DTD SVG 20010904//EN"
 "http://www.w3.org/TR/2001/REC-SVG-20010904/DTD/svg10.dtd">
<svg version="1.0" xmlns="http://www.w3.org/2000/svg"
 width="360.000000pt" height="360.000000pt" viewBox="0 0 360.000000 360.000000"
 preserveAspectRatio="xMidYMid meet">

<g transform="translate(0.000000,360.000000) scale(0.100000,-0.100000)"
fill="#000000" stroke="none">
<path d="M1605 3590 c-27 -4 -75 -11 -105 -15 -55 -7 -145 -28 -255 -60 -85
-25 -277 -112 -368 -168 -257 -156 -481 -382 -633 -640 -50 -83 -134 -269
-155 -341 -27 -89 -59 -220 -64 -260 -3 -25 -9 -76 -15 -113 -12 -87 -13 -301
0 -378 5 -33 12 -82 15 -109 26 -217 144 -508 297 -733 97 -142 287 -334 433
-437 205 -145 499 -271 703 -302 20 -3 78 -12 127 -20 115 -18 315 -18 430 0
50 8 108 17 130 21 53 8 236 60 305 87 522 203 926 648 1080 1188 16 58 32
121 34 140 3 19 12 78 20 130 20 119 20 317 2 435 -8 50 -17 107 -20 127 -30
196 -155 492 -293 690 -104 150 -301 347 -446 446 -222 151 -516 271 -732 298
-22 3 -69 9 -105 14 -76 11 -312 11 -385 0z m900 -633 c252 -89 426 -287 471
-537 16 -91 20 -1118 4 -1215 -45 -279 -237 -494 -511 -572 -59 -16 -114 -18
-669 -18 -548 0 -611 2 -667 18 -239 68 -407 226 -490 462 l-28 80 0 625 0
625 27 80 c38 112 91 197 174 279 104 105 231 172 368 195 28 5 319 8 646 8
l595 -2 80 -28z"/>
<path d="M1235 2800 c-181 -25 -343 -152 -405 -317 -37 -98 -41 -195 -38 -740
5 -572 5 -578 70 -692 63 -111 197 -212 318 -240 73 -17 1182 -14 1246 3 171
45 315 189 360 360 17 64 20 1173 3 1246 -37 163 -161 296 -333 359 l-71 26
-545 2 c-300 0 -572 -3 -605 -7z m1316 -195 c90 -47 90 -193 0 -240 -91 -47
-201 17 -201 118 0 104 108 170 201 122z m-616 -180 c223 -47 413 -225 481
-450 14 -44 18 -91 18 -180 -1 -102 -5 -131 -27 -193 -36 -103 -81 -176 -157
-252 -76 -76 -149 -121 -252 -157 -64 -23 -89 -26 -198 -26 -99 0 -138 4 -187
20 -269 89 -453 337 -453 613 0 288 201 546 482 620 88 23 198 25 293 5z"/>
<path d="M1704 2245 c-183 -40 -322 -186 -354 -372 -32 -195 73 -395 255 -484
68 -33 74 -34 190 -34 101 0 129 3 175 22 111 46 207 142 253 253 19 46 22 74
22 175 0 117 -1 123 -34 190 -67 136 -194 231 -341 254 -79 13 -89 13 -166 -4z"/>
</g>
</svg>
