<?xml version="1.0" standalone="no"?>
<!DOCTYPE svg PUBLIC "-//W3C//DTD SVG 20010904//EN"
 "http://www.w3.org/TR/2001/REC-SVG-20010904/DTD/svg10.dtd">
<svg version="1.0" xmlns="http://www.w3.org/2000/svg"
 width="2048.000000pt" height="1438.000000pt" viewBox="0 0 2048.000000 1438.000000"
 preserveAspectRatio="xMidYMid meet">

<g transform="translate(0.000000,1438.000000) scale(0.100000,-0.100000)"
fill="#000000" stroke="none">
<path d="M2 11138 c0 -1859 4 -3100 9 -2908 16 705 43 1274 89 1894 9 120 39
414 76 736 120 1064 292 1670 612 2155 298 452 786 814 1346 1000 373 123 779
169 2116 240 1039 55 2439 91 4540 118 96 1 -1842 4 -4307 5 l-4483 2 2 -3242z"/>
<path d="M11700 14373 c1073 -14 1821 -26 2290 -38 2148 -56 3531 -136 4022
-231 592 -115 1154 -432 1513 -854 90 -106 172 -243 286 -473 329 -667 501
-1432 584 -2597 70 -980 79 -1396 72 -3390 -6 -1660 -4 -1602 -72 -2480 -95
-1233 -198 -1806 -430 -2390 -74 -186 -187 -421 -259 -534 -111 -175 -296
-379 -491 -541 -257 -214 -632 -409 -970 -504 -228 -64 -235 -64 -1245 -131
-535 -35 -783 -49 -1545 -90 -428 -23 -1463 -63 -2050 -80 -356 -10 -1490 -29
-1935 -33 -135 -1 1837 -3 4383 -5 l4627 -2 0 7190 0 7190 -4477 -2 c-2463 -1
-4399 -4 -4303 -5z"/>
<path d="M8140 7414 l0 -2876 53 30 c58 33 607 325 792 422 66 34 152 79 190
100 185 99 1221 630 2130 1090 209 106 457 232 550 280 94 48 265 136 380 195
116 59 246 127 290 150 44 23 160 84 257 135 98 51 176 96 173 100 -3 4 -170
119 -372 255 -203 135 -620 416 -928 623 -309 207 -852 573 -1208 812 -356
239 -914 614 -1240 833 -325 219 -687 462 -804 540 -116 78 -210 144 -208 146
4 3 102 -47 483 -246 78 -41 142 -72 142 -70 0 3 -118 67 -262 143 -145 75
-295 154 -335 175 -40 22 -75 39 -78 39 -3 0 -5 -1294 -5 -2876z"/>
<path d="M8850 9916 c0 -2 7 -7 16 -10 8 -3 12 -2 9 4 -6 10 -25 14 -25 6z"/>
<path d="M8890 9895 c0 -7 61 -37 66 -33 2 3 -12 12 -31 21 -19 9 -35 15 -35
12z"/>
<path d="M8990 9845 c0 -2 18 -14 40 -25 22 -11 40 -18 40 -15 0 2 -18 14 -40
25 -22 11 -40 18 -40 15z"/>
<path d="M9140 9766 c0 -3 14 -12 30 -21 17 -9 30 -13 30 -11 0 3 -13 12 -30
21 -16 9 -30 13 -30 11z"/>
<path d="M9240 9716 c0 -3 14 -12 30 -21 17 -9 30 -13 30 -11 0 3 -13 12 -30
21 -16 9 -30 13 -30 11z"/>
<path d="M9390 9636 c0 -3 14 -12 30 -21 17 -9 30 -13 30 -11 0 3 -13 12 -30
21 -16 9 -30 13 -30 11z"/>
<path d="M9490 9586 c0 -3 14 -12 30 -21 17 -9 30 -13 30 -11 0 3 -13 12 -30
21 -16 9 -30 13 -30 11z"/>
<path d="M9640 9506 c0 -3 14 -12 30 -21 17 -9 30 -13 30 -11 0 3 -13 12 -30
21 -16 9 -30 13 -30 11z"/>
<path d="M9740 9456 c0 -3 9 -10 20 -16 11 -6 20 -8 20 -6 0 3 -9 10 -20 16
-11 6 -20 8 -20 6z"/>
<path d="M9870 9386 c0 -3 14 -12 30 -21 17 -9 30 -13 30 -11 0 3 -13 12 -30
21 -16 9 -30 13 -30 11z"/>
<path d="M10120 9256 c0 -3 14 -12 30 -21 17 -9 30 -13 30 -11 0 3 -13 12 -30
21 -16 9 -30 13 -30 11z"/>
<path d="M10380 9116 c0 -2 7 -7 16 -10 8 -3 12 -2 9 4 -6 10 -25 14 -25 6z"/>
<path d="M10527 9039 c7 -7 15 -10 18 -7 3 3 -2 9 -12 12 -14 6 -15 5 -6 -5z"/>
<path d="M10620 8996 c0 -3 9 -10 20 -16 11 -6 20 -8 20 -6 0 3 -9 10 -20 16
-11 6 -20 8 -20 6z"/>
<path d="M2 3468 l-2 -3468 4968 2 c2732 2 4857 4 4722 5 -1140 10 -2913 44
-3825 73 -170 5 -458 14 -640 20 -1620 50 -2578 143 -3090 302 -576 178 -1045
513 -1331 948 -267 407 -494 1086 -588 1757 -51 366 -98 861 -121 1273 -48
883 -67 1392 -84 2195 -4 202 -8 -1161 -9 -3107z"/>
</g>
</svg>
